<?xml version="1.0" encoding="UTF-8" standalone="no"?>
<svg
   xmlns:dc="http://purl.org/dc/elements/1.1/"
   xmlns:cc="http://creativecommons.org/ns#"
   xmlns:rdf="http://www.w3.org/1999/02/22-rdf-syntax-ns#"
   xmlns:svg="http://www.w3.org/2000/svg"
   xmlns="http://www.w3.org/2000/svg"
   viewBox="0 0 1819.5333 1437.7067"
   height="1437.7067"
   width="1819.5333"
   xml:space="preserve"
   id="svg2"
   version="1.1"><metadata
     id="metadata8"><rdf:RDF><cc:Work
         rdf:about=""><dc:format>image/svg+xml</dc:format><dc:type
           rdf:resource="http://purl.org/dc/dcmitype/StillImage" /></cc:Work></rdf:RDF></metadata><defs
     id="defs6" /><g
     transform="matrix(1.3333333,0,0,-1.3333333,0,1437.7067)"
     id="g10"><g
       transform="scale(0.1)"
       id="g12"><path
         id="path14"
         style="fill:#cfa550;fill-opacity:1;fill-rule:evenodd;stroke:none"
         d="m 7866.04,6157.36 v 0 c 25.79,0 46.83,-21.08 46.83,-46.84 v -180.68 c 0,-25.75 -21.04,-46.82 -46.83,-46.82 v 0 c -25.75,0 -46.83,21.07 -46.83,46.82 v 180.68 c 0,25.76 21.08,46.84 46.83,46.84 z m -561.97,-834.14 c -25.74,0 -46.82,21.04 -46.82,46.83 v 443.88 c 0,25.77 21.08,46.84 46.82,46.84 h 0.04 c 25.75,0 46.82,-21.07 46.82,-46.84 v -443.88 c 0,-25.79 -21.07,-46.83 -46.82,-46.83 z m 0,908.27 h 0.04 c 25.75,0 46.82,-21.07 46.82,-46.82 v -91.73 c 0,-25.75 -21.07,-46.81 -46.82,-46.81 h -0.04 c -25.74,0 -46.82,21.06 -46.82,46.81 v 91.73 c 0,25.75 21.08,46.82 46.82,46.82 z m 561.97,518.95 c -25.75,0 -46.83,21.07 -46.83,46.84 v 210.32 c 0,25.78 21.08,46.83 46.83,46.83 v 0 c 25.79,0 46.83,-21.05 46.83,-46.83 v -210.32 c 0,-25.77 -21.04,-46.84 -46.83,-46.84 z m 187.32,1164.03 v 0 c 25.76,0 46.82,21.09 46.82,46.84 v 102.83 c 0,25.74 -21.06,46.83 -46.82,46.83 v 0 c -25.75,0 -46.82,-21.09 -46.82,-46.83 v -102.83 c 0,-25.75 21.07,-46.84 46.82,-46.84 z m -374.63,874.9 v 0 c 25.78,0 46.84,-21.06 46.84,-46.84 v -317.71 c 0,-25.77 -21.06,-46.85 -46.84,-46.85 v 0 c -25.77,0 -46.83,21.08 -46.83,46.85 v 317.71 c 0,25.78 21.06,46.84 46.83,46.84 z m -561.94,-774.51 c -25.79,0 -46.86,21.06 -46.86,46.82 v 256.54 111.36 c 0,25.74 21.07,46.82 46.86,46.82 v 0 c 25.74,0 46.82,-21.08 46.82,-46.82 v -281.88 -86.02 c 0,-25.76 -21.08,-46.82 -46.82,-46.82 z m 0,741.06 v 0 c 25.74,0 46.82,-21.07 46.82,-46.83 v -47.23 c 0,-25.76 -21.08,-46.81 -46.82,-46.81 v 0 c -25.79,0 -46.86,21.05 -46.86,46.81 v 47.23 c 0,25.76 21.07,46.83 46.86,46.83 z M 8287.5,6501.47 v 521.04 c 0,25.78 -21.07,46.85 -46.82,46.85 v 0 c -25.74,0 -46.82,-21.07 -46.82,-46.85 v -555.09 c 0,-25.76 21.08,-46.82 46.82,-46.82 v 0 c 25.75,0 46.82,21.06 46.82,46.82 z M 6835.78,5503.02 c -25.75,0 -46.82,21.05 -46.82,46.83 v 84.28 c 0,25.76 21.07,46.85 46.82,46.85 h 0.05 c 25.75,0 46.82,-21.09 46.82,-46.85 v -84.28 c 0,-25.78 -21.07,-46.83 -46.82,-46.83 z m 374.65,956.45 v 0 c 25.75,0 46.82,-21.07 46.82,-46.82 v -12.1 -33.28 c 0,-25.74 21.08,-46.79 46.82,-46.79 h 0.04 c 25.75,0 46.82,21.05 46.82,46.79 v 579.55 148.01 c 0,25.76 21.07,46.83 46.83,46.83 v 0 c 25.78,0 46.82,-21.07 46.82,-46.83 v -106.82 -96.11 c 0,-25.76 21.06,-46.82 46.81,-46.82 h 0.04 c 25.75,0 46.83,21.06 46.83,46.82 v 140.78 264.68 c 0,25.75 21.07,46.82 46.81,46.82 v 0 c 25.76,0 46.83,-21.07 46.83,-46.82 v -215.84 -63.56 c 0,-25.77 21.06,-46.82 46.83,-46.82 v 0 c 25.78,0 46.84,21.05 46.84,46.82 v 117.26 78.22 c 0,25.75 21.04,46.82 46.79,46.82 h 0.04 c 25.75,0 46.81,-21.07 46.81,-46.82 v -18.74 -15.57 c 0,-25.77 21.08,-46.84 46.83,-46.84 v 0 c 25.79,0 46.83,21.07 46.83,46.84 v 81.84 174.9 c 0,25.75 21.06,46.82 46.85,46.82 v 0 c 25.75,0 46.82,-21.07 46.82,-46.82 v -100.6 l 0.24,0.23 c 2.53,-23.46 22.49,-41.88 46.58,-41.88 v 0 c 25.76,0 46.82,21.07 46.82,46.84 v 78.61 221.48 140.09 c 0,25.76 -21.06,46.81 -46.82,46.81 v 0 c -25.75,0 -46.82,-21.05 -46.82,-46.81 v -1.07 -112.89 c 0,-25.76 -21.07,-46.84 -46.82,-46.84 v 0 c -25.79,0 -46.85,21.08 -46.85,46.84 v 178.31 72.85 1751.97 370.19 c 0,25.8 21.06,46.9 46.85,46.9 v 0 c 25.75,0 46.82,-21.1 46.82,-46.9 v -481.2 -255.5 c 0,-25.75 21.07,-46.82 46.82,-46.82 v 0 c 25.76,0 46.82,21.07 46.82,46.82 v 123.15 42.7 c 0,25.74 21.07,46.82 46.83,46.82 h 0.03 c 25.76,0 46.82,-21.08 46.82,-46.82 v -209.96 c 92.67,-191.09 151.56,-408.08 170.29,-661.26 2.55,-381.89 5.03,-763.76 7.55,-1145.65 42.72,-57.79 85.43,-115.56 128.14,-173.35 -31.08,-62.07 -68.25,-125.8 -118.65,-190.35 V 6294.4 6144.09 5746.32 c 0,-25.76 -21.08,-46.82 -46.82,-46.82 v 0 c -25.8,0 -46.87,21.06 -46.87,46.82 v 49.29 62.84 c 0,25.77 -21.07,46.82 -46.82,46.82 v 0 c -25.74,0 -46.82,-21.05 -46.82,-46.82 V 5562.5 4889.96 c 0,-25.75 -21.06,-46.81 -46.82,-46.81 h -0.03 c -25.76,0 -46.83,21.06 -46.83,46.81 v 495.63 15 c 0,25.76 -21.06,46.82 -46.82,46.82 v 0 c -25.75,0 -46.82,-21.06 -46.82,-46.82 v -157.91 -209 c 0,-25.67 -21.15,-46.82 -46.82,-46.82 v 0 c -25.71,0 -46.85,21.07 -46.85,46.82 v 89.37 438.79 c 0,25.77 -21.04,46.85 -46.83,46.85 v 0 c -25.75,0 -46.83,-21.08 -46.83,-46.85 V 5020.3 4489.6 c 0,-25.79 -21.06,-46.8 -46.81,-46.8 h -0.04 c -25.75,0 -46.79,21.01 -46.79,46.8 v 440.52 51.53 c 0,25.79 -21.06,46.82 -46.84,46.82 v 0 c -25.77,0 -46.83,-21.03 -46.83,-46.82 v -131.76 -200.86 c 0,-25.75 -21.07,-46.78 -46.83,-46.78 v 0 c -25.74,0 -46.81,21.03 -46.81,46.78 v 128.63 18.67 c 0,25.74 -21.08,46.82 -46.83,46.82 h -0.04 c -25.75,0 -46.81,-21.08 -46.81,-46.82 v -84.53 -303.71 c 0,-25.78 -21.04,-46.82 -46.82,-46.82 v 0 c -25.76,0 -46.83,21.04 -46.83,46.82 v 243.09 328.65 c 0,25.74 -21.07,46.81 -46.82,46.81 h -0.04 c -25.74,0 -46.82,-21.07 -46.82,-46.81 v -375.23 -55.72 c 0,-25.75 -21.07,-46.83 -46.82,-46.83 v 0 c -25.76,0 -46.82,21.08 -46.82,46.83 v 197 1342.49 324.28 c 0,25.75 21.06,46.82 46.82,46.82 z m 1311.22,-368.83 h 0.03 c 25.76,0 46.83,21.07 46.83,46.82 v 349.37 c 0,25.77 -21.07,46.82 -46.83,46.82 h -0.03 c -25.75,0 -46.82,-21.05 -46.82,-46.82 v -349.37 c 0,-25.75 21.07,-46.82 46.82,-46.82 z m -1311.22,698.64 v 0 c 25.75,0 46.82,-21.05 46.82,-46.81 v -144.53 c 0,-25.77 -21.07,-46.84 -46.82,-46.84 v 0 c -25.76,0 -46.82,21.07 -46.82,46.84 v 144.53 c 0,25.76 21.06,46.81 46.82,46.81 z m 749.29,3646.12 v 0 c 25.75,0 46.82,-21.1 46.82,-46.9 v -180.7 c 0,-25.7 -21.07,-46.8 -46.82,-46.8 v 0 c -25.79,0 -46.85,21.1 -46.85,46.8 v 180.7 c 0,25.8 21.06,46.9 46.85,46.9 z M 7023.1,5400.01 c -25.74,0 -46.82,21.07 -46.82,46.82 v 462.45 c 0,25.75 21.08,46.82 46.82,46.82 v 0 c 25.79,0 46.83,-21.07 46.83,-46.82 v -462.45 c 0,-25.75 -21.04,-46.82 -46.83,-46.82 z m 374.66,4944.39 c -25.76,0 -46.83,21.1 -46.83,46.8 v 44.5 c 0,25.8 21.07,46.8 46.83,46.8 v 0 c 25.78,0 46.82,-21 46.82,-46.8 v -44.5 c 0,-25.7 -21.04,-46.8 -46.82,-46.8 z m 374.6,-340.1 c -25.75,0 -46.79,21.1 -46.79,46.8 v 684.9 c 0,25.7 21.04,46.8 46.79,46.8 h 0.04 c 25.75,0 46.81,-21.1 46.81,-46.8 v -684.9 c 0,-25.7 -21.06,-46.8 -46.81,-46.8 z m 374.65,-312.75 h 0.03 c 25.76,0 46.82,21.05 46.82,46.83 v 30.01 c 0,25.77 -21.06,46.85 -46.82,46.85 h -0.03 c -25.76,0 -46.83,-21.08 -46.83,-46.85 v -30.01 c 0,-25.78 21.07,-46.83 46.83,-46.83 z M 8334.37,5355 v 0 c -25.8,0 -46.87,21.07 -46.87,46.82 v 113.53 c 0,25.75 21.07,46.82 46.87,46.82 v 0 c 25.74,0 46.82,-21.07 46.82,-46.82 v -113.53 c 0,-25.75 -21.08,-46.82 -46.82,-46.82 z m -374.65,-697.42 v 0 c -25.79,0 -46.85,21.06 -46.85,46.85 v 157.75 c 0,25.74 21.06,46.83 46.85,46.83 v 0 c 25.75,0 46.82,-21.09 46.82,-46.83 v -157.75 c 0,-25.79 -21.07,-46.85 -46.82,-46.85 z m 187.32,-102.89 h -0.03 c -25.76,0 -46.83,21.08 -46.83,46.83 v 50.92 c 0,25.76 21.07,46.83 46.83,46.83 h 0.03 c 25.76,0 46.82,-21.07 46.82,-46.83 v -50.92 c 0,-25.75 -21.06,-46.83 -46.82,-46.83 z m -561.97,-190.9 v 0 c -25.74,0 -46.81,21.04 -46.81,46.83 v 73.17 c 0,25.75 21.07,46.83 46.81,46.83 v 0 c 25.76,0 46.83,-21.08 46.83,-46.83 v -73.17 c 0,-25.79 -21.07,-46.83 -46.83,-46.83 z m -796.11,6329.41 c -142.46,-81 -279.6,-170.3 -399.41,-286.4 -8.79,-62.8 -17.6,-125.6 -26.39,-188.4 -644.68,-395.31 -1091.08,-833.01 -1149.4,-1620.47 -2.51,-381.89 -5.02,-763.76 -7.56,-1145.65 -42.69,-57.79 -85.4,-115.56 -128.12,-173.35 56.91,-113.57 134.09,-232.74 275.6,-352.18 -15.81,-312.26 -25.22,-377.01 -177.63,-672.85 144.55,-841.2 527.33,-1300.07 1139.99,-1656.29 37.06,55.89 74.11,111.83 111.17,167.71 -3.14,437.13 -6.26,874.3 -9.42,1311.47 -37.69,125.61 -75.37,251.23 -113.04,376.84 1.25,153.26 2.51,306.49 3.76,459.75 -358.8,142.68 -662.5,319.09 -919.53,595.45 80.4,119.32 160.81,238.66 241.21,358 301.48,-190.55 623.35,-350.67 998.64,-452.24 -30.63,-309.86 -93.75,-589.95 -195.96,-878.06 l 168.77,-166.1 v -125.52 c 0,-25.74 21.07,-46.82 46.84,-46.82 v 0 c 25.75,0 46.82,21.08 46.82,46.82 v 33.34 50.97 c 0,25.75 21.07,46.82 46.84,46.82 v 0 c 25.75,0 46.82,-21.07 46.82,-46.82 v -143.16 -280.33 c 0,-25.77 21.07,-46.82 46.82,-46.82 h 0.05 c 25.75,0 46.82,21.05 46.82,46.82 v 372.52 306.76 c 0,25.76 21.06,46.82 46.82,46.82 v 0 c 25.74,0 46.81,-21.06 46.81,-46.82 v -214.58 -238.56 c 0,-25.74 21.08,-46.83 46.82,-46.83 v 0 c 25.79,0 46.83,21.09 46.83,46.83 v 330.73 175.29 101.06 32.58 375.14 c 0,25.74 -21.04,46.82 -46.83,46.82 v 0 c -25.74,0 -46.82,-21.08 -46.82,-46.82 v -241.45 c -8.38,-12.79 -22.86,-21.29 -39.17,-21.29 h -0.03 c -25.76,0 -46.83,21.07 -46.83,46.81 v 493.93 c 0,25.76 21.07,46.83 46.83,46.83 h 0.03 c 16.31,0 30.79,-8.48 39.17,-21.29 v -44.93 c 0,-25.75 21.08,-46.82 46.82,-46.82 v 0 c 25.79,0 46.83,21.07 46.83,46.82 v 44.59 386.41 c 0,25.75 21.07,46.83 46.86,46.83 v 0 c 25.74,0 46.82,-21.08 46.82,-46.83 v -355.51 -429.48 c 0,-25.76 21.06,-46.82 46.82,-46.82 v 0 c 25.75,0 46.82,21.06 46.82,46.82 v 463.6 117.48 c 0,25.76 21.08,46.84 46.82,46.84 h 0.04 c 25.75,0 46.82,-21.08 46.82,-46.84 v -80.12 -7.89 c 0,-25.77 21.07,-46.82 46.83,-46.82 v 0 c 25.78,0 46.82,21.05 46.82,46.82 v 48.55 59.16 c 0,25.77 21.06,46.85 46.81,46.85 h 0.04 c 25.75,0 46.83,-21.08 46.83,-46.85 v -15.17 -18.29 c 0,-25.77 21.07,-46.82 46.81,-46.82 v 0 c 25.76,0 46.83,21.05 46.83,46.82 v 65.54 107.66 355.84 c 0,25.76 21.06,46.82 46.83,46.82 v 0 c 25.78,0 46.84,-21.06 46.84,-46.82 v -413 -8.64 c 0,-25.75 21.04,-46.85 46.79,-46.85 h 0.04 c 25.75,0 46.81,21.1 46.81,46.85 v 62.27 129.56 1848.44 87.4 c 0,25.77 -21.06,46.82 -46.81,46.82 h -0.04 c -25.75,0 -46.79,-21.05 -46.79,-46.82 v -1.43 -623.09 c 0,-25.77 -21.06,-46.82 -46.84,-46.82 v 0 c -25.77,0 -46.83,21.05 -46.83,46.82 v 400.38 300.78 443.38 c 0,25.8 -21.07,46.9 -46.83,46.9 v 0 c -25.74,0 -46.81,-21.1 -46.81,-46.9 v -371.6 l -0.04,0.1 c -0.98,-24.98 -21.64,-45.05 -46.79,-45.05 h -0.04 c -25.75,0 -46.81,21.06 -46.81,46.85 v 65.1 90.4 c 0,25.7 -21.04,46.8 -46.82,46.8 v 0 c -25.76,0 -46.83,-21.1 -46.83,-46.8 v -27.4 -29.6 c 0,-25.7 -21.07,-46.8 -46.82,-46.8 h -0.04 c -25.74,0 -46.82,21.1 -46.82,46.8 v 39.9 c 0.77,3.4 1.22,6.9 1.22,10.5 v 354.3 c 0,25.7 -21.06,46.8 -46.86,46.8 v 0 c -25.76,0 -46.82,-21.1 -46.82,-46.8 v -78.1 -39.2 c 0,-25.7 -21.08,-46.8 -46.82,-46.8 v 0 c -25.79,0 -46.87,21.1 -46.87,46.8 v 118.7 c -88.92,69.5 -184.27,129 -282.14,184.6 v 0" /><path
         id="path16"
         style="fill:#f2f2f2;fill-opacity:1;fill-rule:evenodd;stroke:none"
         d="m 13040.3,3196.01 c -362.8,0 -608.6,-179.03 -608.6,-465.44 0,-594.27 902.2,-386.65 902.2,-758.99 0,-128.85 -117,-202.85 -312.7,-202.85 -179,0 -393.8,85.91 -565.6,243.46 l -121.8,-243.46 c 171.8,-157.55 420.1,-264.98 682.6,-264.98 367.6,0 629.3,183.87 630.1,482.17 1.5,601.46 -899.8,405.75 -899.8,770.88 0,112.19 107.4,174.22 272.1,174.22 126.5,0 307.9,-45.3 489.3,-155.1 l 116.9,248.22 c -155.1,102.59 -367.5,171.87 -584.7,171.87 z m -945.2,-264.99 v 252.99 h -1193.3 v -1670.7 h 1222 v 253.03 h -940.4 v 460.63 h 816.3 v 252.97 h -816.3 v 451.08 z M 9885.05,1768.73 V 3184.01 H 9603.4 v -1670.7 h 1004.8 v 255.42 H 9885.05 Z M 8655.88,3191.15 c 236.3,0 472.56,-97.82 634.88,-257.72 l -164.72,-205.26 c -121.7,131.27 -295.89,212.42 -465.36,212.42 -334.16,0 -596.71,-257.79 -596.71,-587.12 0,-329.36 262.55,-589.49 596.71,-589.49 167.07,0 338.89,76.34 465.36,198.05 l 167.11,-186.14 c -169.47,-167.1 -410.53,-274.49 -646.83,-274.49 -489.23,0 -868.71,369.92 -868.71,849.68 0,474.96 384.24,840.07 878.27,840.07 z M 7485.21,1513.31 h 300.69 l -730.34,1670.7 H 6766.79 L 6029.3,1513.31 h 293.56 c 193.6,456.57 386.23,913.47 579.97,1369.96 193.86,-456.72 388.63,-913.1 582.38,-1369.96 z M 5827.62,2981.18 v 202.83 H 4460.04 v -252.99 h 988.11 L 4428.97,1716.21 v -202.9 h 1410.58 v 253.03 H 4810.86 Z M 3092.44,2269.92 v 661.1 h 396.22 c 257.74,0 405.75,-104.98 405.75,-324.55 0,-226.75 -148.09,-336.55 -405.75,-336.55 z m 778.07,-756.61 h 319.8 l -374.68,558.51 c 221.97,85.92 346.08,274.5 346.08,541.8 0,362.76 -245.95,570.39 -673.05,570.39 H 2810.8 v -1670.7 h 281.64 v 503.64 h 396.22 c 26.24,0 52.5,0 76.35,2.36 z M 1505.24,3184.01 H 1433.6 L 883.863,2466.9 334.094,3184.01 H 264.938 65.4766 0 v -1670.7 h 264.938 v 1325.54 l 452.019,-589.63 166.906,-217.71 166.877,217.71 454.5,592.85 V 1513.31 h 260.54 v 1670.7 h -77.45 z m 928.57,-1670.7 v 1670.7 H 2152.2 v -1670.7 h 281.61 v 0" /><path
         id="path18"
         style="fill:#f2f2f2;fill-opacity:1;fill-rule:evenodd;stroke:none"
         d="m 11760.3,327.801 v -57.5 l 363.5,162.199 v 65.301 L 11760.3,660 v -56.699 l 316.4,-137.699 z M 1968.32,71.5 2241.21,892.781 h -60.17 L 1909.05,71.5 Z m -81.95,528.301 v 57.601 L 1522.85,495.203 v -65.402 l 363.52,-162.098 v 56.598 l -316.44,137.801 316.44,137.699 v 0" /><path
         id="path20"
         style="fill:#cfa550;fill-opacity:1;fill-rule:evenodd;stroke:none"
         d="m 11299.1,639.902 c -83.8,0 -159.6,-36.601 -159.6,-124.601 -0.9,-163.102 256.3,-106.399 253.7,-217.098 -0.9,-45.301 -44.5,-65.402 -98.5,-65.402 -54,0 -113.3,21.801 -152.5,58.398 l -26.2,-51.398 c 43.6,-41.899 110.7,-64.598 176.1,-64.598 88,0 168.2,40.199 168.2,130.797 0,164.801 -256.3,112.5 -256.3,214.5 0,42.699 39.3,61 90.7,61 42.7,0 88.9,-14.797 124.7,-37.5 l 26.1,54 c -38.3,26.203 -91.5,41.902 -146.4,41.902 z m -613.7,-203.101 c 10.4,87.199 73.2,143.801 160.4,143.801 89.7,0 149,-55.801 153.4,-143.801 z m 160.4,202.301 c -133.4,0 -227.6,-95.102 -227.6,-231.903 0,-136.898 93.3,-231.996 228.4,-231.996 76.7,0 141.2,27.899 184.8,76.797 l -37.5,40.102 c -35.7,-37.5 -85.4,-57.5 -142,-57.5 -89,0 -154.3,56.597 -166.5,146.398 h 374.8 c 7,156.102 -66.3,258.902 -214.4,258.102 z m -296.5,-374.899 c -25.2,-15.703 -49.6,-23.5 -73.2,-23.5 -39.2,0 -61,20.899 -61,76.699 v 250.301 h 145.6 v 55.899 l -145.6,-0.801 V 744 H 10348 V 622.801 h -66.3 v -55.098 h 66.3 V 305.102 c 0,-90.602 49.6,-130.7 116.8,-130.7 36.6,0.801 71.5,13.098 103.7,34.899 z m -383.6,-86.301 v 459.399 h -67.1 V 177.902 Z m -33.9,638.149 c -25.3,0 -44.5,-20.059 -44.5,-47.149 0,-27 19.2,-47 44.5,-47 25.2,0 44.4,20 44.4,47 0,27.09 -19.2,47.149 -44.4,47.149 z M 9825.75,639.902 c -83.71,0 -159.53,-36.601 -159.53,-124.601 -0.86,-163.102 256.3,-106.399 253.66,-217.098 -0.85,-45.301 -44.43,-65.402 -98.48,-65.402 -54.06,0 -113.34,21.801 -152.54,58.398 l -26.2,-51.398 c 43.6,-41.899 110.72,-64.598 176.09,-64.598 88.07,0 168.25,40.199 168.25,130.797 0,164.801 -256.27,112.5 -256.27,214.5 0,42.699 39.21,61 90.67,61 42.71,0 88.93,-14.797 124.68,-37.5 l 26.11,54 c -38.37,26.203 -91.53,41.902 -146.44,41.902 z M 9351.53,237.199 c -96.78,0 -164.8,70.602 -164.8,170.801 0,99.402 68.02,170.902 164.8,170.902 95.88,0 163.89,-72.402 163.89,-170.902 0,-99.301 -68.01,-170.801 -163.89,-170.801 z m 12.2,402.703 c -80.22,0 -142.99,-37.402 -177,-102 v 286.86 h -68.01 v -646.86 h 68.01 v 98.5 c 34.01,-63.601 96.78,-101.199 178.74,-101.199 129.9,0 218.81,95.098 218.81,231.098 0,137.699 -90.67,233.601 -220.55,233.601 z M 8622.69,436.801 c 10.46,87.199 73.22,143.801 160.43,143.801 89.79,0 149.1,-55.801 153.44,-143.801 z m 160.43,202.301 c -133.38,0 -227.54,-95.102 -227.54,-231.903 0,-136.898 93.26,-231.996 228.4,-231.996 76.72,0 141.23,27.899 184.84,76.797 l -37.5,40.102 c -35.72,-37.5 -85.43,-57.5 -142.09,-57.5 -88.92,0 -154.29,56.597 -166.54,146.398 h 374.89 c 6.96,156.102 -66.26,258.902 -214.46,258.102 z m -416.7,-461.2 170,459.399 H 8465.8 L 8331.52,248.5 8196.38,637.301 h -71.46 L 7991.54,248.5 l -136,388.801 h -71.51 l 171.79,-459.399 h 70.61 L 8160.67,551 8295.77,177.902 Z M 7780.57,0 V 45.4023 H 7297.6 V 0 Z m -707.92,639.102 c -132.49,0 -227.51,-95.102 -227.51,-231.903 0,-136.898 94.13,-231.996 227.51,-231.996 79.37,0 142.98,29.699 183.95,79.399 l -39.21,41.8 c -32.27,-38.3 -81.93,-59.203 -142.09,-59.203 -95.03,0 -163.04,69.703 -163.04,170 0,100.203 68.01,169.102 163.04,169.102 55.77,0 101.98,-20.098 136.83,-53.199 l 37.5,47.898 c -41.84,43.703 -102.87,68.902 -176.98,68.102 z m -414.06,-1.801 V 177.902 h 67.99 v 459.399 z m 33.11,84.601 c 25.31,0 44.47,20 44.47,47 0,27.09 -19.16,47.149 -44.47,47.149 -25.28,0 -43.59,-20.059 -43.59,-47.149 0,-27 18.31,-47 43.59,-47 z M 6390.07,626 v 50.602 c 0,101.898 72.35,154.25 147.34,154.25 29.61,-0.852 59.26,-8.739 82.8,-23.551 l -1.73,-63.598 c -25.29,13.899 -54.04,22.598 -80.21,22.598 -45.35,0.902 -81.08,-27 -81.08,-81 V 626 h 131.63 V 570.203 H 6457.19 V 177.902 h -67.12 v 392.301 h -59.29 V 626 Z m -141.26,138.602 c 23.56,0 48.86,-8.801 69.75,-23.602 l 27.9,54.992 c -27.9,20.871 -63.64,31.367 -98.5,32.231 -76.71,0 -147.35,-54.02 -147.35,-154.321 v -50.5 h -59.27 v -55.8 h 59.27 v -389.7 h 67.14 v 389.7 h 131.65 v 55.8 h -131.65 v 59.2 c 0,53.199 36.63,82 81.06,82 z M 5713.55,233.699 c -64.53,0 -105.5,33.102 -105.5,83.703 0,50.5 40.13,74.098 116.84,74.098 h 143.09 v -55 c -17.4,-63.598 -76.69,-102.801 -154.43,-102.801 z m 155.32,-55.797 h 66.4 l -0.88,303.399 c -0.86,98.5 -63.78,158.601 -177.28,158.601 -78.44,0 -128.13,-22.699 -187.41,-61.902 l 28.78,-49.699 c 47.91,33.199 95,52.301 145.57,52.301 81.22,0 123.07,-40.102 123.07,-107.2 v -27 h -150.96 c -108.11,-0.902 -171.75,-51.5 -171.75,-131.703 0,-79.297 61.04,-140.297 156.04,-140.297 73.24,0 131.8,24.399 168.42,74.098 z m -519.76,459.399 h -67.98 V 177.902 h 67.98 V 422 c 7.87,90.602 68.02,150.801 164.79,149 v 68.902 c -77.62,-0.8 -134.25,-37.402 -164.79,-104.601 z M 5159.07,264.203 c -25.26,-15.703 -49.67,-23.5 -73.22,-23.5 -39.23,0 -61.02,20.899 -61.02,76.699 v 250.301 h 145.58 v 55.899 l -145.58,-0.801 V 744 h -67.14 V 622.801 h -66.26 v -55.098 h 66.26 V 305.102 c 0,-90.602 49.68,-130.7 116.83,-130.7 36.63,0.801 71.47,13.098 103.72,34.899 z M 4858.31,0 V 45.4023 H 4375.32 V 0 Z m -726.2,639.902 c -84.57,-0.8 -147.33,-34 -178.73,-105.5 v 290.36 h -68.01 v -646.86 h 68.01 v 225.797 c 0,98.5 57.55,167.301 155.17,168.203 81.08,0 129.91,-47.902 129.91,-129 v -265 h 68 v 283.297 c 0,110.703 -64.5,178.703 -174.35,178.703 z M 3501.79,255.5 c -92.41,0 -156.92,67.902 -157.78,162.102 0.86,95 65.37,163 157.78,163 91.56,0 156.95,-67.102 156.95,-163 0,-94.2 -65.39,-162.102 -156.95,-162.102 z m 224.94,381.801 h -67.99 V 544 c -33.16,61.102 -92.42,95.902 -170.87,95.902 -122.94,-0.8 -207.5,-91.5 -207.5,-219.699 0,-130.801 85.45,-222.301 209.23,-222.301 77.57,0 136.86,34.899 169.14,96 v -69.8 c 0,-95.899 -65.39,-156.9028 -165.66,-156.9028 C 3432.06,68 3384.12,88.1016 3338.78,125.602 L 3307.4,73.3008 C 3363.19,31.4023 3423.33,7.90234 3495.69,7 c 139.48,0 231.04,84.6016 231.04,218.801 z M 3160.91,177.902 v 459.399 h -67.13 V 177.902 Z m -33.95,638.149 c -25.3,0 -44.51,-20.059 -44.51,-47.149 0,-27 19.21,-47 44.51,-47 25.23,0 44.43,20 44.43,47 0,27.09 -19.2,47.149 -44.43,47.149 z M 2767.74,639.902 c -84.57,-0.8 -147.33,-34 -178.72,-105.5 v 290.36 h -67.98 v -646.86 h 67.98 v 225.797 c 0,98.5 57.56,167.301 155.18,168.203 81.06,0 129.92,-47.902 129.92,-129 v -265 h 67.97 v 283.297 c 0,110.703 -64.49,178.703 -174.35,178.703 v 0" /></g></g></svg>